mtllib materials.mtl
v 0.02997118 0.3470004 0.06417957
v 0.005433023 0.3002912 0.1359689
v -0.04181021 0.3066332 0.1238156
v -0.01675826 0.353629 0.05095577
v -0.01265293 0.2221316 0.1746686
v -0.06032324 0.2276174 0.1632937
v -0.01944965 0.1334612 0.1699402
v -0.06733674 0.1377536 0.158812
v -0.01314241 0.05800986 0.1230628
v -0.06097156 0.06112099 0.1115713
v 0.004105031 0.01622093 0.04766843
v -0.04293317 0.01825309 0.03422979
v 0.02898329 0.01860428 -0.03905037
v -0.0180549 0.02063632 -0.05248904
v 0.05352944 0.06524158 -0.1108912
v 0.006997049 0.06763208 -0.1253489
v 0.07164025 0.1434097 -0.1496758
v 0.02551001 0.1466479 -0.164827
v 0.07845396 0.2321607 -0.1449806
v 0.03252357 0.2365116 -0.1603453
v 0.07213867 0.3076839 -0.09805165
v 0.02615839 0.3131442 -0.1131046
v 0.05438936 0.349717 -0.02148235
v 0.00812 0.3560122 -0.03576297
v 0.06720942 0.28344 -0.07578525
v 0.0528875 0.3173283 -0.01391079
v -0.03717351 0.283928 0.100145
v -0.01688141 0.3219948 0.04112855
v 0.07231539 0.2224771 -0.1137384
v 0.06683421 0.1508003 -0.117582
v 0.05224097 0.08764517 -0.08629833
v 0.03245467 0.04993677 -0.02830091
v 0.01230329 0.04800642 0.04194134
v -0.001516879 0.0816505 0.1026408
v -0.006614864 0.1425416 0.1405425
v -0.001150608 0.2141377 0.1444193
v 0.0134179 0.2772845 0.1132205
v 0.03319621 0.3150644 0.05527461
v -0.05216902 0.2199253 0.1321222
v -0.05785 0.1471356 0.1284921
v -0.0526942 0.08506322 0.09022713
v -0.03808308 0.05034029 0.0275805
v -0.01793176 0.05227077 -0.04266174
v 0.002360344 0.09033728 -0.1016782
v 0.01735586 0.15434 -0.1336555
v 0.0230369 0.2271296 -0.1300253
v 0.01788104 0.2892021 -0.09176034
v 0.00326997 0.323925 -0.02911371
v -0.005558431 0.02388334 0.02003404
v 0.00691843 0.02388334 0.01669088
v 0.00691843 -0.09667218 0.01669085
v -0.005558431 -0.09667218 0.02003402
v 0.01605213 0.02388334 0.007557169
v 0.01605213 -0.09667218 0.007557154
v 0.01939529 0.02388334 -0.004919678
v 0.01939529 -0.09667218 -0.004919693
v 0.01605213 0.02388334 -0.01739652
v 0.01605213 -0.09667218 -0.01739654
v 0.00691843 0.02388334 -0.02653022
v 0.00691843 -0.09667218 -0.02653024
v -0.005558431 0.02388334 -0.02987337
v -0.005558431 -0.09667218 -0.02987339
v -0.01803529 0.02388334 -0.02653022
v -0.01803529 -0.09667218 -0.02653024
v -0.02716899 0.02388334 -0.01739652
v -0.02716899 -0.09667218 -0.01739654
v -0.03051215 0.02388334 -0.004919678
v -0.03051215 -0.09667218 -0.004919693
v -0.02716899 0.02388334 0.007557169
v -0.02716899 -0.09667218 0.007557154
v -0.01803529 0.02388334 0.01669088
v -0.01803529 -0.09667218 0.01669085
v 0.006918371 -0.1420426 0.01669064
v -0.005558491 -0.1420426 0.02003378
v 0.01605207 -0.1420425 0.007556945
v 0.01939523 -0.1420425 -0.004919916
v 0.01605207 -0.1420425 -0.01739676
v 0.006918371 -0.1420425 -0.02653046
v -0.005558491 -0.1420425 -0.02987361
v -0.01803535 -0.1420425 -0.02653046
v -0.02716905 -0.1420425 -0.01739676
v -0.03051221 -0.1420425 -0.004919916
v -0.02716905 -0.1420425 0.007556945
v -0.01803535 -0.1420426 0.01669064
v 0.01104814 -0.1783388 0.02384344
v -0.00555855 -0.1783388 0.02829319
v 0.0232051 -0.1783388 0.01168652
v 0.02765483 -0.1783388 -0.0049202
v 0.0232051 -0.1783388 -0.02152689
v 0.0110482 -0.1783388 -0.03368384
v -0.00555855 -0.1783388 -0.03813353
v -0.02216524 -0.1783388 -0.03368384
v -0.0343222 -0.1783388 -0.02152689
v -0.03877193 -0.1783388 -0.004920214
v -0.03432214 -0.1783388 0.01168649
v -0.02216524 -0.1783388 0.02384344
v 0.01104802 -0.3825054 0.02384216
v -0.00555867 -0.3825054 0.02829191
v 0.02320498 -0.3825054 0.01168525
v 0.02765471 -0.3825054 -0.004921466
v 0.02320492 -0.3825054 -0.02152815
v 0.01104802 -0.3825054 -0.0336851
v -0.00555867 -0.3825054 -0.03813481
v -0.02216542 -0.3825054 -0.0336851
v -0.03432232 -0.3825054 -0.02152815
v -0.03877205 -0.3825054 -0.004921496
v -0.03432226 -0.3825054 0.01168522
v -0.02216536 -0.3825054 0.02384216
v 0.008943439 -0.3915796 0.02019691
v -0.00555867 -0.3915796 0.02408275
v 0.01955974 -0.3915796 0.009580672
v 0.02344555 -0.3915796 -0.004921466
v 0.01955968 -0.3915796 -0.01942357
v 0.008943439 -0.3915796 -0.03003986
v -0.00555867 -0.3915796 -0.03392568
v -0.02006078 -0.3915796 -0.03003986
v -0.03067708 -0.3915796 -0.01942357
v -0.03456289 -0.3915796 -0.004921496
v -0.03067702 -0.3915796 0.009580642
v -0.02006078 -0.3915796 0.02019691
v 0.005013406 -0.3961165 0.01338981
v -0.00555867 -0.3961165 0.01622258
v 0.01275265 -0.3961165 0.005650565
v 0.01558536 -0.3961165 -0.004921496
v 0.01275265 -0.3961165 -0.01549351
v 0.005013406 -0.3961165 -0.0232328
v -0.00555867 -0.3961165 -0.02606553
v -0.01613075 -0.3961165 -0.0232328
v -0.02386999 -0.3961165 -0.01549351
v -0.02670276 -0.3961165 -0.004921526
v -0.02386993 -0.3961165 0.005650565
v -0.01613069 -0.3961165 0.01338981
vn -0.02564137 0.8419057 0.5390154
vn -0.1540701 0.4668286 0.8708234
vn -0.2291357 -0.03431116 0.9727896
vn -0.2307672 -0.5273342 0.8177196
vn -0.1661294 -0.8781038 0.4487036
vn -0.03263184 -0.9987893 -0.03681139
vn 0.1156104 -0.8507122 -0.5127603
vn 0.2441292 -0.4758168 -0.8449848
vn 0.319317 0.02559963 -0.9473022
vn 0.3209795 0.5190799 -0.7921668
vn 0.248662 0.8722281 -0.4211713
vn 0.1217717 0.9903535 0.06611951
vn 0.9748949 0.006208757 0.222579
vn -0.9581074 0.0883632 -0.2724376
vn 0.9825584 -0.03169593 0.1832331
vn 0.9824341 -0.08423445 0.1665171
vn 0.9745133 -0.1380529 0.1768199
vn 0.960719 -0.179154 0.21195
vn 0.9440586 -0.1956664 0.2654582
vn 0.9306891 -0.1851197 0.3155133
vn 0.9224127 -0.1452277 0.35786
vn 0.9226531 -0.09071046 0.3748103
vn 0.931115 -0.03573792 0.3629706
vn 0.9453326 0.004541792 0.3260764
vn 0.9613422 0.01962857 0.2746564
vn 0.9588401 -0.08780288 0.2700303
vn -0.9581073 0.08836348 -0.2724378
vn -0.9581072 0.08836399 -0.2724378
vn -0.9581072 0.08836436 -0.2724377
vn -0.9581073 0.088365 -0.2724373
vn -0.9581074 0.08836456 -0.2724372
vn -0.9581075 0.08836443 -0.2724368
vn -0.9581076 0.08836432 -0.2724365
vn -0.9581077 0.08836402 -0.2724364
vn -0.9581077 0.08836354 -0.2724366
vn -0.9581076 0.08836322 -0.2724369
vn -0.9581075 0.08836318 -0.2724372
vn -0.9581075 0.08836401 -0.2724371
vn 0.2588192 -2.669196E-07 0.9659258
vn 0.7071074 -1.852019E-07 0.7071062
vn 0.9659258 -2.450845E-07 0.2588193
vn 0.9659258 -4.194872E-08 -0.2588193
vn 0.7071068 4.81959E-08 -0.7071067
vn 0.258818 1.579443E-07 -0.9659261
vn -0.2588179 1.047993E-07 -0.9659262
vn -0.7071068 3.54737E-08 -0.7071067
vn -0.9659258 -1.540334E-07 -0.2588193
vn -0.9659257 -1.168149E-07 0.2588193
vn -0.7071072 -2.635699E-07 0.7071062
vn -0.2588192 -3.430253E-07 0.9659258
vn 1.14546E-09 1 1.849268E-07
vn 0.2588186 -4.911088E-06 0.965926
vn 0.7071068 -4.247608E-06 0.7071067
vn 0.9659258 -2.455948E-06 0.2588193
vn 0.9659257 8.019286E-08 -0.2588195
vn 0.7071073 2.584282E-06 -0.7071063
vn 0.2588182 4.232947E-06 -0.9659261
vn -0.2588183 4.865941E-06 -0.965926
vn -0.7071074 4.314674E-06 -0.7071062
vn -0.9659257 2.397702E-06 -0.2588195
vn -0.9659258 -1.527028E-07 0.2588193
vn -0.7071068 -2.533138E-06 0.7071067
vn -0.2588184 -4.312642E-06 0.965926
vn 0.252784 0.2146764 0.9434057
vn 0.6906196 0.2146779 0.6906214
vn 0.9434047 0.2146806 0.2527843
vn 0.9434037 0.2146838 -0.2527851
vn 0.6906203 0.2146877 -0.6906176
vn 0.252782 0.2146901 -0.9434031
vn -0.2527819 0.2146908 -0.9434029
vn -0.6906196 0.21469 -0.6906176
vn -0.9434028 0.2146873 -0.2527853
vn -0.9434037 0.2146831 0.2527856
vn -0.6906203 0.2146794 0.6906203
vn -0.2527839 0.2146771 0.9434056
vn 0.2588185 -6.187063E-06 0.965926
vn 0.7071061 -4.876489E-06 0.7071075
vn 0.9659261 -2.249637E-06 0.2588181
vn 0.9659256 9.773278E-07 -0.2588199
vn 0.7071083 3.934895E-06 -0.7071053
vn 0.2588167 5.843874E-06 -0.9659265
vn -0.2588167 6.187357E-06 -0.9659265
vn -0.7071076 4.877102E-06 -0.707106
vn -0.9659255 2.249216E-06 -0.2588204
vn -0.9659253 -9.761878E-07 0.258821
vn -0.7071076 -3.935082E-06 0.7071059
vn -0.2588185 -5.844421E-06 0.965926
vn 0.236193 -0.408893 0.881487
vn 0.6452914 -0.4088925 0.6452953
vn 0.8814873 -0.408893 0.2361922
vn 0.8814865 -0.4088929 -0.2361948
vn 0.6452955 -0.4088933 -0.6452906
vn 0.2361922 -0.4088921 -0.8814876
vn -0.236192 -0.4088917 -0.8814878
vn -0.6452941 -0.4088929 -0.6452923
vn -0.8814864 -0.4088931 -0.2361953
vn -0.8814862 -0.408893 0.236196
vn -0.6452948 -0.4088937 0.645291
vn -0.2361932 -0.4088934 0.8814868
vn 0.1327653 -0.8584071 0.4954903
vn 0.3627231 -0.8584084 0.3627217
vn 0.4954895 -0.8584075 0.1327653
vn 0.4954907 -0.8584067 -0.1327669
vn 0.3627255 -0.8584074 -0.3627216
vn 0.1327652 -0.8584067 -0.495491
vn -0.1327651 -0.8584061 -0.4954919
vn -0.3627245 -0.8584071 -0.3627235
vn -0.4954893 -0.8584076 -0.1327661
vn -0.4954887 -0.8584077 0.1327679
vn -0.3627234 -0.8584081 0.3627221
vn -0.1327654 -0.8584075 0.4954896
vn -1.14546E-09 -1 -1.849268E-07
usemtl mat22
f 4//1 3//1 2//1 1//1
f 3//2 6//2 5//2 2//2
f 6//3 8//3 7//3 5//3
f 8//4 10//4 9//4 7//4
f 10//5 12//5 11//5 9//5
f 12//6 14//6 13//6 11//6
f 14//7 16//7 15//7 13//7
f 16//8 18//8 17//8 15//8
f 18//9 20//9 19//9 17//9
f 20//10 22//10 21//10 19//10
f 22//11 24//11 23//11 21//11
f 24//12 4//12 1//12 23//12
f 26//13 25//13 21//13 23//13
f 28//14 27//14 3//14 4//14
f 25//15 29//15 19//15 21//15
f 29//16 30//16 17//16 19//16
f 30//17 31//17 15//17 17//17
f 31//18 32//18 13//18 15//18
f 32//19 33//19 11//19 13//19
f 33//20 34//20 9//20 11//20
f 34//21 35//21 7//21 9//21
f 35//22 36//22 5//22 7//22
f 36//23 37//23 2//23 5//23
f 37//24 38//24 1//24 2//24
f 38//25 26//25 23//25 1//25
f 27//27 39//27 6//27 3//27
f 39//28 40//28 8//28 6//28
f 40//29 41//29 10//29 8//29
f 41//30 42//30 12//30 10//30
f 42//31 43//31 14//31 12//31
f 43//32 44//32 16//32 14//32
f 44//33 45//33 18//33 16//33
f 45//34 46//34 20//34 18//34
f 46//35 47//35 22//35 20//35
f 47//36 48//36 24//36 22//36
f 48//37 28//37 4//37 24//37
f 52//39 51//39 50//39 49//39
f 51//40 54//40 53//40 50//40
f 54//41 56//41 55//41 53//41
f 56//42 58//42 57//42 55//42
f 58//43 60//43 59//43 57//43
f 60//44 62//44 61//44 59//44
f 62//45 64//45 63//45 61//45
f 64//46 66//46 65//46 63//46
f 66//47 68//47 67//47 65//47
f 68//48 70//48 69//48 67//48
f 70//49 72//49 71//49 69//49
f 72//50 52//50 49//50 71//50
f 49//51 50//51 53//51 55//51 57//51 59//51 61//51 63//51 65//51 67//51 69//51 71//51
usemtl mat24
f 38//26 37//26 36//26 35//26 34//26 33//26 32//26 31//26 30//26 29//26 25//26 26//26
f 48//38 47//38 46//38 45//38 44//38 43//38 42//38 41//38 40//38 39//38 27//38 28//38
usemtl mat23
f 74//52 73//52 51//52 52//52
f 73//53 75//53 54//53 51//53
f 75//54 76//54 56//54 54//54
f 76//55 77//55 58//55 56//55
f 77//56 78//56 60//56 58//56
f 78//57 79//57 62//57 60//57
f 79//58 80//58 64//58 62//58
f 80//59 81//59 66//59 64//59
f 81//60 82//60 68//60 66//60
f 82//61 83//61 70//61 68//61
f 83//62 84//62 72//62 70//62
f 84//63 74//63 52//63 72//63
f 86//64 85//64 73//64 74//64
f 85//65 87//65 75//65 73//65
f 87//66 88//66 76//66 75//66
f 88//67 89//67 77//67 76//67
f 89//68 90//68 78//68 77//68
f 90//69 91//69 79//69 78//69
f 91//70 92//70 80//70 79//70
f 92//71 93//71 81//71 80//71
f 93//72 94//72 82//72 81//72
f 94//73 95//73 83//73 82//73
f 95//74 96//74 84//74 83//74
f 96//75 86//75 74//75 84//75
f 98//76 97//76 85//76 86//76
f 97//77 99//77 87//77 85//77
f 99//78 100//78 88//78 87//78
f 100//79 101//79 89//79 88//79
f 101//80 102//80 90//80 89//80
f 102//81 103//81 91//81 90//81
f 103//82 104//82 92//82 91//82
f 104//83 105//83 93//83 92//83
f 105//84 106//84 94//84 93//84
f 106//85 107//85 95//85 94//85
f 107//86 108//86 96//86 95//86
f 108//87 98//87 86//87 96//87
f 110//88 109//88 97//88 98//88
f 109//89 111//89 99//89 97//89
f 111//90 112//90 100//90 99//90
f 112//91 113//91 101//91 100//91
f 113//92 114//92 102//92 101//92
f 114//93 115//93 103//93 102//93
f 115//94 116//94 104//94 103//94
f 116//95 117//95 105//95 104//95
f 117//96 118//96 106//96 105//96
f 118//97 119//97 107//97 106//97
f 119//98 120//98 108//98 107//98
f 120//99 110//99 98//99 108//99
f 122//100 121//100 109//100 110//100
f 121//101 123//101 111//101 109//101
f 123//102 124//102 112//102 111//102
f 124//103 125//103 113//103 112//103
f 125//104 126//104 114//104 113//104
f 126//105 127//105 115//105 114//105
f 127//106 128//106 116//106 115//106
f 128//107 129//107 117//107 116//107
f 129//108 130//108 118//108 117//108
f 130//109 131//109 119//109 118//109
f 131//110 132//110 120//110 119//110
f 132//111 122//111 110//111 120//111
f 132//112 131//112 130//112 129//112 128//112 127//112 126//112 125//112 124//112 123//112 121//112 122//112
